<?xml version="1.0" encoding="iso-8859-1"?>
<!-- Generator: Adobe Illustrator 18.1.1, SVG Export Plug-In . SVG Version: 6.00 Build 0)  -->
<svg version="1.1" id="Capa_1" xmlns="http://www.w3.org/2000/svg" xmlns:xlink="http://www.w3.org/1999/xlink" x="0px" y="0px"
	 viewBox="0 0 80 80" style="enable-background:new 0 0 80 80;" xml:space="preserve">
<g id="_x37_7_Essential_Icons_6_">
	<path id="Calendar" d="M72,13h-8V9c0-1.1-0.9-2-2-2s-2,0.9-2,2v4H20V9c0-1.1-0.9-2-2-2s-2,0.9-2,2v4H8c-4.4,0-8,3.6-8,8v44
		c0,4.4,3.6,8,8,8h64c4.4,0,8-3.6,8-8V21C80,16.6,76.4,13,72,13z M76,65c0,2.2-1.8,4-4,4H8c-2.2,0-4-1.8-4-4V35h72V65z M76,31H4V21
		c0-2.2,1.8-4,4-4h8v6c0,1.1,0.9,2,2,2s2-0.9,2-2v-6h40v6c0,1.1,0.9,2,2,2s2-0.9,2-2v-6h8c2.2,0,4,1.8,4,4V31z"/>
</g>
<g>
</g>
<g>
</g>
<g>
</g>
<g>
</g>
<g>
</g>
<g>
</g>
<g>
</g>
<g>
</g>
<g>
</g>
<g>
</g>
<g>
</g>
<g>
</g>
<g>
</g>
<g>
</g>
<g>
</g>
</svg>
